<svg xmlns="http://www.w3.org/2000/svg" width="52.775" height="70.188" viewBox="0 0 52.775 70.188"><defs><style>.a{fill:#fff;}</style></defs><path class="a" d="M88.634,94.813V57.375H35.871V94.739c-.036.791-.57,19.566,25.638,32.459l.744.364L63,127.2C89.2,114.3,88.667,95.53,88.634,94.813ZM85.268,81.767,72.748,94.285,64.633,86.17,85.268,65.535Zm-4.095,25.71H43.323L62.253,88.55l18.924,18.924ZM39.237,65.535,59.872,86.17l-8.118,8.115L39.237,81.767Zm13.237,8.476a15.631,15.631,0,0,1,19.557,0l-9.778,9.778Zm32.794-13.27v.033L74.42,71.622a18.948,18.948,0,0,0-24.336,0L39.237,60.774v-.033ZM39.237,94.813V86.528L49.374,96.665l-7.756,7.756A22.532,22.532,0,0,1,39.237,94.813Zm23.016,28.992c-8.01-4.059-13.237-8.649-16.645-12.962H78.826C75.418,115.168,70.215,119.77,62.253,123.805Zm20.59-19.426-7.715-7.715,10.14-10.14v8.366A22.849,22.849,0,0,1,82.843,104.38Z" transform="translate(-35.865 -57.375)"/></svg>