<svg id="Layer_1" data-name="Layer 1" xmlns="http://www.w3.org/2000/svg" xmlns:xlink="http://www.w3.org/1999/xlink" viewBox="0 0 219.22 304.03"><defs><style>.cls-1,.cls-5{fill:none;}.cls-2{clip-path:url(#clip-path);}.cls-3{isolation:isolate;}.cls-4{fill:#fff;}.cls-5{stroke:#fff;stroke-width:3px;}</style><clipPath id="clip-path" transform="translate(-3.1 -5.28)"><rect class="cls-1" x="-188" y="-256.28" width="600" height="820"/></clipPath></defs><title>crop_10OFF_popup_2</title><g class="cls-2"><g id="Welcome_Email_10_Off_Pop_up" data-name="Welcome Email 10 Off Pop up"><g id="Group_14" data-name="Group 14"><g id="RECEIVE"><g id="RECEIVE-2"><g class="cls-3"><path class="cls-4" d="M69.22,5.28H79l2.64,2.64v13.9L79.3,24.15l2.64,14.57H77.85l-2.6-14.26h-1.8V38.72H69.22Zm8.19,14.87V9.68l-.88-.88H73.45V21h3.08Z" transform="translate(-3.1 -5.28)"/><path class="cls-4" d="M84.62,5.28H95.05v3.6h-6.2V20h5.41v3.61H88.85V35.11h6.29v3.61H84.62Z" transform="translate(-3.1 -5.28)"/><path class="cls-4" d="M97.25,7.92l2.64-2.64h6.51L109,7.92v7.52h-4.22V9.68l-.88-.88h-1.59l-.88.88V34.23l.88.88h1.59l.88-.88V28.51H109v7.57l-2.64,2.64H99.89l-2.64-2.64Z" transform="translate(-3.1 -5.28)"/><path class="cls-4" d="M111.46,5.28h10.43v3.6h-6.2V20h5.41v3.61h-5.41V35.11H122v3.61H111.46Z" transform="translate(-3.1 -5.28)"/><path class="cls-4" d="M124.22,5.28h4.23V38.72h-4.23Z" transform="translate(-3.1 -5.28)"/><path class="cls-4" d="M134.12,38.72,130.29,5.28h4.14l2.73,28.47,2.72-28.47h4L140,38.72Z" transform="translate(-3.1 -5.28)"/><path class="cls-4" d="M145.69,5.28h10.43v3.6h-6.2V20h5.41v3.61h-5.41V35.11h6.29v3.61H145.69Z" transform="translate(-3.1 -5.28)"/></g></g></g><g id="_10" data-name=" 10"><g id="_10-2" data-name=" 10-2"><g class="cls-3"><path class="cls-4" d="M20.38,79.37H3.1V58.21H45.15V254.29H20.38Z" transform="translate(-3.1 -5.28)"/><path class="cls-4" d="M132.87,238.81l-15.48,15.48H76.88L61.4,238.81V73.69L76.88,58.21h40.51l15.48,15.48ZM91.33,79.37l-5.16,5.16V228l5.16,5.16h11.61L108.1,228V84.53l-5.16-5.16Z" transform="translate(-3.1 -5.28)"/></g></g></g><g id="_" data-name=" "><g id="_2" data-name=" 2"><g class="cls-3"><path class="cls-4" d="M158.85,105.41l-5.11-5.11V63.72l5.11-5.12h19.53l5.12,5.12V100.3l-5.12,5.11Zm1.24,71,44.8-117.8h11.16l-44.8,117.8ZM166,67.9l-1.87,1.86V94.25L166,96.11h5.26l1.87-1.86V69.76l-1.87-1.86ZM197.6,176.4l-5.11-5.11V134.71l5.11-5.12h19.53l5.12,5.12v36.58l-5.12,5.11Zm7.13-37.51-1.86,1.86v24.49l1.86,1.86H210l1.86-1.86V140.75L210,138.89Z" transform="translate(-3.1 -5.28)"/></g></g></g><g id="off"><g id="off-2"><g class="cls-3"><path class="cls-4" d="M174.48,249.71l-4.59,4.58H157.14l-4.59-4.58v-48.9l4.59-4.58h12.75l4.59,4.58Zm-13.07-47.22L159.89,204V246.5l1.52,1.53h4.21l1.52-1.53V204l-1.52-1.53Z" transform="translate(-3.1 -5.28)"/><path class="cls-4" d="M198.7,202.49H188.15v19.94h9.48v6.27h-9.48v25.59h-7.33V196.23H198.7Z" transform="translate(-3.1 -5.28)"/><path class="cls-4" d="M221.54,202.49H211v19.94h9.47v6.27H211v25.59h-7.34V196.23h17.88Z" transform="translate(-3.1 -5.28)"/></g></g></g><g id="Your_first_order" data-name="Your first order"><g id="Your_first_order-2" data-name="Your first order-2"><g class="cls-3"><g class="cls-3"><path class="cls-4" d="M8.64,309.31V297.79L3.27,274.14H8l2.78,17.26,2.78-17.26h4.76L13,297.79v11.52Z" transform="translate(-3.1 -5.28)"/></g><g class="cls-3"><path class="cls-4" d="M33,306.53l-2.78,2.78H22.48l-2.78-2.78V276.91l2.78-2.77H30.2L33,276.91Zm-7.91-28.6-.93.93v25.73l.93.92h2.54l.93-.92V278.86l-.93-.93Z" transform="translate(-3.1 -5.28)"/><path class="cls-4" d="M46.08,309.31H38.63l-2.78-2.78V274.14h4.44v30.45l.93.92h2.27l.92-.92V274.14h4.44v32.39Z" transform="translate(-3.1 -5.28)"/><path class="cls-4" d="M51.86,274.14H62.14l2.77,2.77v14.63L62.46,294l2.78,15.32H60.93l-2.73-15H56.3v15H51.86Zm8.61,15.64v-11l-.93-.92H56.3v12.87h3.24Z" transform="translate(-3.1 -5.28)"/><path class="cls-4" d="M86.29,277.93H79.91V290h5.74v3.8H79.91v15.5H75.46V274.14H86.29Z" transform="translate(-3.1 -5.28)"/><path class="cls-4" d="M88.38,274.14h4.44v35.17H88.38Z" transform="translate(-3.1 -5.28)"/></g><g class="cls-3"><path class="cls-4" d="M95.88,274.14h10.27l2.78,2.77v14.63L106.48,294l2.77,15.32H105l-2.73-15h-1.9v15H95.88Zm8.61,15.64v-11l-.93-.92h-3.24v12.87h3.24Z" transform="translate(-3.1 -5.28)"/><path class="cls-4" d="M119.48,278.76l-.93-.92h-1.62l-.92.92v9.91l.92.92h4.35l2.78,2.78v14.16l-2.78,2.78h-7l-2.78-2.78v-7.36h4.45v5.51l.92.93h1.85l.93-.93V294.31l-.93-.92h-4.35l-2.77-2.78v-13.7l2.77-2.77h6.81l2.77,2.77v7.41h-4.44Z" transform="translate(-3.1 -5.28)"/></g><g class="cls-3"><path class="cls-4" d="M134.06,277.84v31.47h-4.44V277.84h-4.21v-3.7h12.86v3.7Z" transform="translate(-3.1 -5.28)"/></g><g class="cls-3"><path class="cls-4" d="M160.31,306.53l-2.78,2.78H149.8L147,306.53V276.91l2.78-2.77h7.73l2.78,2.77Zm-7.92-28.6-.92.93v25.73l.92.92h2.55l.92-.92V278.86l-.92-.93Z" transform="translate(-3.1 -5.28)"/><path class="cls-4" d="M163.22,274.14h10.27l2.78,2.77v14.63L173.82,294l2.78,15.32h-4.31l-2.73-15h-1.9v15h-4.44Zm8.61,15.64v-11l-.93-.92h-3.24v12.87h3.24Z" transform="translate(-3.1 -5.28)"/><path class="cls-4" d="M192.61,276.91v29.62l-2.78,2.78H179.42V274.14h10.41Zm-4.44,27.68V278.86l-.93-.93h-3.38v27.58h3.38Z" transform="translate(-3.1 -5.28)"/><path class="cls-4" d="M195.52,274.14h11v3.79H200v11.66h5.69v3.8H200v12.12h6.61v3.8H195.52Z" transform="translate(-3.1 -5.28)"/><path class="cls-4" d="M208.94,274.14h10.28l2.78,2.77v14.63L219.54,294l2.78,15.32H218l-2.73-15h-1.89v15h-4.45Zm8.61,15.64v-11l-.92-.92h-3.24v12.87h3.24Z" transform="translate(-3.1 -5.28)"/></g></g></g></g><line id="Line_22" data-name="Line 22" class="cls-5" x1="15.97" y1="17.45" x2="51.97" y2="17.45"/><line id="Line_23" data-name="Line 23" class="cls-5" x1="166.36" y1="17.45" x2="202.36" y2="17.45"/></g></g></g></svg>